<?xml version="1.0" encoding="UTF-8"?>
<svg width="10px" height="10px" viewBox="0 0 10 10" version="1.1" xmlns="http://www.w3.org/2000/svg" xmlns:xlink="http://www.w3.org/1999/xlink">
    <!-- Generator: sketchtool 42 (36781) - http://www.bohemiancoding.com/sketch -->
    <title>38FA7937-4D58-478A-837F-2460ADBE8CD9</title>
    <desc>Created with sketchtool.</desc>
    <defs></defs>
    <g id="web_platform" stroke="none" stroke-width="1" fill="none" fill-rule="evenodd">
        <g id="DJ-profile---Pricing-inside" transform="translate(-373.000000, -374.000000)" stroke-width="0.5" stroke="#FD5D77" fill="#FD5D77">
            <g id="Group-2" transform="translate(330.000000, 220.000000)">
                <g id="price1">
                    <path d="M51.8859659,155.656346 C52.0359602,155.506346 52.0359602,155.2625 51.8859659,155.1125 C51.7359717,154.9625 51.4921349,154.9625 51.3421407,155.1125 L47.9992308,158.455577 L44.6563209,155.1125 C44.5063267,154.9625 44.2624899,154.9625 44.1124957,155.1125 C43.9625014,155.2625 43.9625014,155.506346 44.1124957,155.656346 L47.4554056,158.999423 L44.1124957,162.3425 C43.9625014,162.4925 43.9625014,162.736346 44.1124957,162.886346 C44.1878774,162.961731 44.2863351,162.998654 44.3847929,162.998654 C44.4832506,162.998654 44.5817084,162.960962 44.6570901,162.886346 L48,159.543269 L51.3429099,162.886346 C51.4182916,162.961731 51.5167494,162.998654 51.6152071,162.998654 C51.7136649,162.998654 51.8121226,162.960962 51.8875043,162.886346 C52.0374986,162.736346 52.0374986,162.4925 51.8875043,162.3425 L48.5445944,158.999423 L51.8859659,155.656346 Z" id="ic_delete_red"></path>
                </g>
            </g>
        </g>
    </g>
</svg>